<svg width="38" height="35" viewBox="0 0 38 35" fill="none" xmlns="http://www.w3.org/2000/svg">
<path fill-rule="evenodd" clip-rule="evenodd" d="M26.1913 0.300218C27.3413 0.300218 28.4895 0.462419 29.5812 0.828737C36.3079 3.01571 38.7318 10.3968 36.7071 16.8483C35.5589 20.1452 33.6817 23.1541 31.2232 25.6127C27.704 29.0207 23.8422 32.046 19.6851 34.6522L19.2295 34.9274L18.7556 34.6339C14.584 32.046 10.7003 29.0207 7.14824 25.5944C4.70611 23.1359 2.82714 20.1452 1.66075 16.8483C-0.398654 10.3968 2.02525 3.01571 8.82492 0.790465C9.35344 0.608217 9.89836 0.480643 10.4451 0.409567H10.6638C11.1759 0.334845 11.6844 0.300218 12.1947 0.300218H12.3952C13.5433 0.334845 14.655 0.535318 15.7321 0.901636H15.8396C15.9125 0.936264 15.9672 0.974536 16.0037 1.00916C16.4064 1.13856 16.7873 1.28436 17.1518 1.48483L17.8444 1.79465C18.0117 1.8839 18.1996 2.02027 18.3619 2.13813C18.4647 2.21281 18.5574 2.28005 18.628 2.32317C18.6578 2.34072 18.688 2.35837 18.7185 2.37616C18.8748 2.46738 19.0375 2.56239 19.1748 2.66762C21.1996 1.12033 23.6581 0.281993 26.1913 0.300218ZM31.0389 13.4226C31.7861 13.4025 32.424 12.8029 32.4787 12.0357V11.8188C32.5333 9.2655 30.9861 6.95277 28.6332 6.05976C27.886 5.80279 27.0659 6.20555 26.7925 6.971C26.5374 7.73644 26.9383 8.57478 27.7038 8.84633C28.872 9.28372 29.6538 10.4337 29.6538 11.7076V11.7641C29.6192 12.1815 29.745 12.5842 30.0001 12.8941C30.2552 13.2039 30.638 13.3843 31.0389 13.4226Z" fill="#fff"/>
</svg>
